<svg width="10" height="10" viewBox="0 0 10 10" fill="none" xmlns="http://www.w3.org/2000/svg">
	<g clip-path="url(#clip0_4_34)">
	<path fill-rule="evenodd" clip-rule="evenodd" d="M4.9851 0C2.22847 0 0 2.29167 0 5.12677C0 7.39302 1.42786 9.31135 3.40867 9.99031C3.65633 10.0414 3.74704 9.88 3.74704 9.74427C3.74704 9.62542 3.73888 9.21802 3.73888 8.79354C2.35214 9.09917 2.06337 8.1824 2.06337 8.1824C1.84051 7.58823 1.51031 7.43552 1.51031 7.43552C1.05643 7.12146 1.54337 7.12146 1.54337 7.12146C2.04684 7.15542 2.31102 7.64771 2.31102 7.64771C2.75663 8.42854 3.47469 8.20792 3.76357 8.07208C3.8048 7.74104 3.93694 7.51188 4.07725 7.38458C2.97122 7.26573 1.80755 6.82438 1.80755 4.8551C1.80755 4.2949 2.00551 3.83656 2.31918 3.4801C2.26969 3.35281 2.09633 2.82646 2.36878 2.12198C2.36878 2.12198 2.78969 1.98615 3.73878 2.64823C4.14511 2.53601 4.56416 2.47892 4.9851 2.47844C5.40602 2.47844 5.8351 2.53792 6.23133 2.64823C7.18051 1.98615 7.60143 2.12198 7.60143 2.12198C7.87388 2.82646 7.70041 3.35281 7.65092 3.4801C7.97286 3.83656 8.16265 4.2949 8.16265 4.8551C8.16265 6.82438 6.99898 7.25719 5.88469 7.38458C6.06633 7.54583 6.22306 7.85135 6.22306 8.33521C6.22306 9.02271 6.2149 9.57448 6.2149 9.74417C6.2149 9.88 6.30571 10.0414 6.55327 9.99042C8.53408 9.31125 9.96194 7.39302 9.96194 5.12677C9.9701 2.29167 7.73347 0 4.9851 0Z" fill="#2F4566"/>
	</g>
	<defs>
	<clipPath id="clip0_4_34">
	<rect width="10" height="10" fill="white"/>
	</clipPath>
	</defs>
</svg>
	